 <svg xmlns="http://www.w3.org/2000/svg"
                width="40"
                height="40"
                fill="none"
              >
                <path
                  fill="#D1D5DB"
                  d="M19.443 3.342c-8.41.275-15.486 7.076-16.068 15.471C2.76 27.695 9.112 35.2 17.51 36.462V24.416h-2.69a2.19 2.19 0 1 1 0-4.38h2.688v-2.915c0-4.826 2.352-6.944 6.364-6.944.595 0 1.103.013 1.535.034a1.988 1.988 0 0 1 1.881 1.997 2 2 0 0 1-2 2h-.736c-1.704 0-2.299 1.615-2.299 3.435v2.395h3.117c.985 0 1.738.878 1.588 1.852l-.18 1.168a1.607 1.607 0 0 1-1.588 1.362h-2.937v12.078C30.392 35.393 36.667 28.437 36.667 20c0-9.39-7.765-16.965-17.224-16.658Z"
                />
              </svg>