 <svg
                xmlns="http://www.w3.org/2000/svg"
                width="39"
                height="40"
                fill="none"
              >
                <path
                  fill="#D1D5DB"
                  d="M13 5c-4.487 0-8.125 3.732-8.125 8.333v13.334C4.875 31.268 8.513 35 13 35h13c4.487 0 8.125-3.732 8.125-8.333V13.333C34.125 8.732 30.487 5 26 5H13Zm16.25 3.333c.897 0 1.625.747 1.625 1.667s-.728 1.667-1.625 1.667-1.625-.747-1.625-1.667.728-1.667 1.625-1.667Zm-9.75 3.334c4.487 0 8.125 3.731 8.125 8.333s-3.638 8.333-8.125 8.333-8.125-3.731-8.125-8.333 3.638-8.333 8.125-8.333Zm0 3.333a4.814 4.814 0 0 0-3.447 1.465A5.065 5.065 0 0 0 14.625 20c0 1.326.514 2.598 1.428 3.535A4.814 4.814 0 0 0 19.5 25a4.814 4.814 0 0 0 3.447-1.465A5.065 5.065 0 0 0 24.375 20a5.065 5.065 0 0 0-1.428-3.535A4.814 4.814 0 0 0 19.5 15Z"
                />
              </svg>