<svg
                xmlns="http://www.w3.org/2000/svg"
                width="39"
                height="40"
                fill="none"
              >
                <path
                  fill="#D1D5DB"
                  d="M30.875 5H8.125c-1.796 0-3.25 1.492-3.25 3.333v23.334c0 1.841 1.454 3.333 3.25 3.333h22.75c1.796 0 3.25-1.492 3.25-3.333V8.333c0-1.841-1.454-3.333-3.25-3.333Zm-18.3 23.333c-1.133 0-2.051-.941-2.051-2.103v-7.462c.001-1.16.92-2.101 2.05-2.101 1.133 0 2.051.941 2.051 2.103v7.462c0 1.16-.918 2.101-2.05 2.101Zm-.072-13.805c-1.253 0-2.09-.856-2.09-2 0-1.143.835-2 2.228-2 1.253 0 2.09.857 2.09 2 0 1.144-.836 2-2.228 2Zm14.763 13.805c-1.095 0-1.984-.911-1.984-2.035v-4.341c0-1.764-1.058-1.957-1.455-1.957-.396 0-1.719.058-1.719 1.957v4.341c0 1.124-.889 2.035-1.984 2.035h-.132c-1.095 0-1.984-.911-1.984-2.035V18.77c0-1.162.918-2.103 2.051-2.103s2.05.941 2.05 2.103c0 0 .459-2.103 3.572-2.103 1.981 0 3.569 1.628 3.569 5.29v4.341c0 1.124-.889 2.035-1.984 2.035Z"
                />
              </svg>