 <svg
                xmlns="http://www.w3.org/2000/svg"
                width="39"
                height="40"
                fill="none"
              >
                <path
                  fill="#D1D5DB"
                  d="M35.155 6.719c-1.324.641-3.578 1.845-4.71 2.075-.044.011-.08.026-.122.038C29 7.495 27.19 6.667 25.187 6.667c-4.038 0-7.312 3.358-7.312 7.5 0 .218-.018.62 0 .833-5.23 0-9.048-2.798-11.906-6.395-.382-.483-.788-.231-.873.112-.19.777-.255 2.075-.255 3.002 0 2.335 1.78 4.628 4.55 6.05A6.505 6.505 0 0 1 7.733 18a4.73 4.73 0 0 1-2.175-.558c-.257-.138-.811-.1-.647.573.658 2.699 3.66 4.594 6.344 5.145-.61.369-1.91.294-2.508.294-.22 0-.99-.054-1.486-.117-.454-.057-1.151.063-.568.97 1.253 1.945 4.087 3.167 6.526 3.213-2.245 1.807-5.918 2.467-9.436 2.467-.712-.017-.676.815-.102 1.123 2.595 1.397 6.846 2.224 9.883 2.224 12.074 0 18.936-9.439 18.936-18.335 0-.144-.003-.444-.008-.745 0-.03.008-.059.008-.089 0-.045-.013-.088-.013-.133-.005-.227-.01-.438-.015-.548.957-.709 2.423-1.939 3.164-2.88.252-.32.049-.709-.294-.587-.882.315-2.408.925-3.364 1.042 1.913-1.299 2.859-2.429 3.671-3.684.278-.428-.07-.863-.494-.656Z"
                />
              </svg>