 <svg
                xmlns="http://www.w3.org/2000/svg"
                width="40"
                height="40"
                fill="none"
              >
                <path
                  fill="#D1D5DB"
                  d="M35.97 10.31a4.177 4.177 0 0 0-2.947-2.947C30.423 6.666 20 6.666 20 6.666s-10.423 0-13.023.697A4.177 4.177 0 0 0 4.03 10.31c-.697 2.6-.697 9.69-.697 9.69s0 7.09.697 9.69a4.177 4.177 0 0 0 2.947 2.946c2.6.697 13.023.697 13.023.697s10.423 0 13.023-.697a4.174 4.174 0 0 0 2.947-2.946c.697-2.6.697-9.69.697-9.69s0-7.09-.697-9.69ZM16.667 24.33v-8.66a.834.834 0 0 1 1.25-.722l7.5 4.33a.834.834 0 0 1 0 1.444l-7.5 4.33a.833.833 0 0 1-1.25-.722Z"
                />
              </svg>